<?xml version="1.0" encoding="UTF-8"?>
<svg version="1.1" xmlns="http://www.w3.org/2000/svg" width="1080" height="1080">
<path d="M0 0 C21.32284322 20.68789402 21.32284322 20.68789402 21.71484375 32.484375 C21.68867401 34.17232306 21.64158735 35.86006885 21.57421875 37.546875 C21.55617188 38.41699219 21.538125 39.28710938 21.51953125 40.18359375 C21.47290311 42.30517407 21.40117952 44.42617835 21.32421875 46.546875 C22.07033417 46.8046875 22.81644958 47.0625 23.58517456 47.328125 C26.43467794 48.59602431 27.97568409 49.83967585 30.14892578 52.046875 C31.21495529 53.11808594 31.21495529 53.11808594 32.30252075 54.2109375 C33.43087845 55.36722656 33.43087845 55.36722656 34.58203125 56.546875 C35.36689911 57.33835937 36.15176697 58.12984375 36.9604187 58.9453125 C39.46388681 61.47216471 41.95696873 64.00896176 44.44921875 66.546875 C46.95031209 69.08303264 49.45353033 71.61704078 51.95944214 74.1484375 C53.51743288 75.72340191 55.07232786 77.30143595 56.62380981 78.8828125 C57.32819183 79.59695313 58.03257385 80.31109375 58.75830078 81.046875 C59.68499069 81.99046875 59.68499069 81.99046875 60.63040161 82.953125 C62.43934626 84.74365437 62.43934626 84.74365437 65.32421875 86.546875 C65.32421875 87.206875 65.32421875 87.866875 65.32421875 88.546875 C65.98421875 88.546875 66.64421875 88.546875 67.32421875 88.546875 C67.32421875 89.206875 67.32421875 89.866875 67.32421875 90.546875 C68.31421875 90.876875 69.30421875 91.206875 70.32421875 91.546875 C70.32421875 92.206875 70.32421875 92.866875 70.32421875 93.546875 C70.86788086 93.76601563 71.41154297 93.98515625 71.97167969 94.2109375 C75.10089082 95.98792415 77.45107274 98.38792475 79.96484375 100.921875 C80.49188904 101.44700684 81.01893433 101.97213867 81.56195068 102.51318359 C82.67038803 103.62026383 83.77631921 104.7298583 84.87988281 105.84179688 C86.57528176 107.54794475 88.28113485 109.24311547 89.98828125 110.9375 C91.06444433 112.01498392 92.13998726 113.09308767 93.21484375 114.171875 C93.72726624 114.68024902 94.23968872 115.18862305 94.76763916 115.71240234 C98.32421875 119.31693409 98.32421875 119.31693409 98.32421875 121.546875 C99.31421875 121.876875 100.30421875 122.206875 101.32421875 122.546875 C101.32421875 123.206875 101.32421875 123.866875 101.32421875 124.546875 C101.98421875 124.546875 102.64421875 124.546875 103.32421875 124.546875 C103.32421875 125.206875 103.32421875 125.866875 103.32421875 126.546875 C104.31421875 126.876875 105.30421875 127.206875 106.32421875 127.546875 C106.32421875 128.206875 106.32421875 128.866875 106.32421875 129.546875 C106.86788086 129.76601563 107.41154297 129.98515625 107.97167969 130.2109375 C111.10089082 131.98792415 113.45107274 134.38792475 115.96484375 136.921875 C116.49188904 137.44700684 117.01893433 137.97213867 117.56195068 138.51318359 C118.67038803 139.62026383 119.77631921 140.7298583 120.87988281 141.84179688 C122.57528176 143.54794475 124.28113485 145.24311547 125.98828125 146.9375 C127.06444433 148.01498392 128.13998726 149.09308767 129.21484375 150.171875 C129.72726624 150.68024902 130.23968872 151.18862305 130.76763916 151.71240234 C134.32421875 155.31693409 134.32421875 155.31693409 134.32421875 157.546875 C135.31421875 157.876875 136.30421875 158.206875 137.32421875 158.546875 C137.32421875 159.206875 137.32421875 159.866875 137.32421875 160.546875 C137.98421875 160.546875 138.64421875 160.546875 139.32421875 160.546875 C139.32421875 161.206875 139.32421875 161.866875 139.32421875 162.546875 C140.31421875 162.876875 141.30421875 163.206875 142.32421875 163.546875 C142.32421875 164.206875 142.32421875 164.866875 142.32421875 165.546875 C143.19602783 165.93081421 143.19602783 165.93081421 144.08544922 166.32250977 C146.54131152 167.66560131 148.17411343 169.15358373 150.14453125 171.13671875 C150.84449219 171.83861328 151.54445313 172.54050781 152.265625 173.26367188 C152.98621094 173.99650391 153.70679688 174.72933594 154.44921875 175.484375 C155.54169922 176.57782227 155.54169922 176.57782227 156.65625 177.69335938 C164.21194884 185.31190599 164.21194884 185.31190599 164.63671875 189.984375 C165.47313726 194.31854366 166.79759071 195.10536328 170.32421875 197.546875 C170.32421875 198.206875 170.32421875 198.866875 170.32421875 199.546875 C170.98421875 199.546875 171.64421875 199.546875 172.32421875 199.546875 C172.32421875 200.206875 172.32421875 200.866875 172.32421875 201.546875 C173.15953125 201.8871875 173.15953125 201.8871875 174.01171875 202.234375 C176.95668559 203.90584266 179.00578419 206.09963852 181.32421875 208.546875 C182.21560547 208.23943359 182.21560547 208.23943359 183.125 207.92578125 C194.373465 204.26959278 204.05464461 203.79035029 215.32421875 207.546875 C216.35413011 208.51604092 217.35166924 209.52015817 218.32421875 210.546875 C220.16762826 212.09818108 222.02963084 213.62394943 223.8984375 215.14453125 C224.36894531 215.60730469 224.83945312 216.07007813 225.32421875 216.546875 C225.32421875 217.206875 225.32421875 217.866875 225.32421875 218.546875 C225.98421875 218.546875 226.64421875 218.546875 227.32421875 218.546875 C228.9453125 220.2265625 228.9453125 220.2265625 230.76171875 222.421875 C232.90822759 225.00881222 234.49198437 226.65871874 237.32421875 228.546875 C243.11699447 237.30236808 246.81281786 246.305449 244.89453125 256.92578125 C241.95845643 268.79694796 231.1818615 276.82918573 222.76708984 285.2175293 C221.50303512 286.48130151 220.23920143 287.74529483 218.97557068 289.00949097 C215.56270397 292.42264328 212.14677346 295.83271404 208.73026609 299.24222159 C205.14736534 302.81884283 201.56732327 306.39832323 197.98696899 309.97749329 C191.20946449 316.7518955 184.42941706 323.52374669 177.64844 330.29467279 C169.94577454 337.98616691 162.24594115 345.68049349 154.54635119 353.37506616 C141.38478743 366.52795526 128.22112057 379.67873642 115.05506897 392.82713318 C114.49899731 393.38246524 113.94292566 393.9377973 113.37000334 394.50995761 C112.35112734 395.52746721 111.33223529 396.54496074 110.31332242 397.56243342 C108.98349708 398.89045633 107.65385442 400.21866218 106.32421875 401.546875 C105.42190836 402.44614621 104.51959797 403.34541742 103.58994484 404.27193928 C102.2445279 405.62282501 100.91478042 406.99012016 99.62109375 408.390625 C93.48020515 414.96571784 86.77541568 419.04543667 77.7109375 419.75 C63.15292074 420.0028165 55.23368854 412.36719147 45.16967773 402.67529297 C37.903737 395.53411154 31.75133978 389.2151874 31.15625 378.53125 C31.12459325 373.28889193 31.14488782 368.59875702 32.63671875 363.546875 C33.27008865 361.48315476 33.27008865 361.48315476 33.32421875 359.546875 C31.09445712 356.56567959 31.09445712 356.56567959 28.32421875 354.546875 C28.32421875 353.886875 28.32421875 353.226875 28.32421875 352.546875 C27.48890625 352.2065625 27.48890625 352.2065625 26.63671875 351.859375 C23.66262287 350.17137464 21.6041301 348.08010983 19.32421875 345.546875 C19.32421875 344.886875 19.32421875 344.226875 19.32421875 343.546875 C18.7621875 343.31355469 18.20015625 343.08023437 17.62109375 342.83984375 C14.75687733 341.22750424 12.85169854 339.2275188 10.57421875 336.859375 C7.68392112 333.86185665 4.74649607 331.01595886 1.58984375 328.3046875 C-3.2292481 324.13370783 -7.69486474 319.63772792 -12.17578125 315.109375 C-12.99820312 314.28244141 -13.820625 313.45550781 -14.66796875 312.60351562 C-16.67290238 310.58692541 -18.67544378 308.56802264 -20.67578125 306.546875 C-21.94888437 307.48129035 -23.21916925 308.41954611 -24.48828125 309.359375 C-25.19597656 309.88144531 -25.90367187 310.40351562 -26.6328125 310.94140625 C-28.48013849 312.39312897 -30.14731903 313.76302113 -31.67578125 315.546875 C-31.88848888 318.09204404 -31.88848888 318.09204404 -31.61328125 320.859375 C-31.49634627 326.10769226 -32.14000149 328.48072828 -35.67578125 332.546875 C-36.29324219 333.30226563 -36.91070313 334.05765625 -37.546875 334.8359375 C-41.01593184 338.96732844 -43.43979535 341.83493526 -48.67578125 343.546875 C-48.67578125 344.206875 -48.67578125 344.866875 -48.67578125 345.546875 C-53.47809143 348.1081071 -58.37486414 348.22325315 -63.67578125 347.546875 C-66.13031224 346.66752589 -68.36710401 345.64447471 -70.66796875 344.421875 C-72.92190241 343.28053596 -72.92190241 343.28053596 -76.67578125 343.546875 C-76.94390625 344.18625 -77.21203125 344.825625 -77.48828125 345.484375 C-78.67578125 347.546875 -78.67578125 347.546875 -81.67578125 348.546875 C-82.38005581 349.86073175 -83.03902671 351.19900042 -83.67578125 352.546875 C-88.25645764 358.66711483 -93.25980289 364.31378991 -98.75390625 369.62109375 C-101.4218258 372.2944359 -103.82482859 375.16897877 -106.23046875 378.078125 C-106.70742188 378.5628125 -107.184375 379.0475 -107.67578125 379.546875 C-108.33578125 379.546875 -108.99578125 379.546875 -109.67578125 379.546875 C-109.73765625 380.10375 -109.79953125 380.660625 -109.86328125 381.234375 C-111.02385815 384.53755542 -113.07791571 386.26582233 -115.67578125 388.546875 C-116.33578125 388.546875 -116.99578125 388.546875 -117.67578125 388.546875 C-117.86140625 389.2275 -118.04703125 389.908125 -118.23828125 390.609375 C-119.92634498 394.05889653 -122.01964898 396.05204658 -124.76953125 398.68359375 C-126.57210753 400.44553818 -128.22154318 402.26053779 -129.86328125 404.171875 C-133.57784892 408.48312662 -137.44453971 412.64433723 -141.32055664 416.80981445 C-144.06217091 419.76543384 -146.73018287 422.75191946 -149.30078125 425.859375 C-150.08453125 426.74625 -150.86828125 427.633125 -151.67578125 428.546875 C-152.33578125 428.546875 -152.99578125 428.546875 -153.67578125 428.546875 C-153.98515625 429.165625 -154.29453125 429.784375 -154.61328125 430.421875 C-155.30078125 431.796875 -155.98828125 433.171875 -156.67578125 434.546875 C-157.33578125 434.546875 -157.99578125 434.546875 -158.67578125 434.546875 C-158.94366455 435.13694336 -159.21154785 435.72701172 -159.48754883 436.33496094 C-160.68751608 438.56871958 -161.94190138 440.10960925 -163.6875 441.9375 C-164.27684326 442.56035889 -164.86618652 443.18321777 -165.47338867 443.82495117 C-166.09705322 444.47568604 -166.72071777 445.1264209 -167.36328125 445.796875 C-168.64542504 447.15149834 -169.92668646 448.50695743 -171.20703125 449.86328125 C-171.81546875 450.50668457 -172.42390625 451.15008789 -173.05078125 451.81298828 C-174.86609956 453.74994601 -176.62939586 455.72425787 -178.36328125 457.734375 C-181.36638326 461.20719297 -184.41275351 464.63816096 -187.48828125 468.046875 C-187.96934326 468.58852295 -188.45040527 469.1301709 -188.94604492 469.68823242 C-190.14796685 471.01314369 -191.40771851 472.28512103 -192.67578125 473.546875 C-193.33578125 473.546875 -193.99578125 473.546875 -194.67578125 473.546875 C-195.33578125 475.196875 -195.99578125 476.846875 -196.67578125 478.546875 C-197.33578125 478.546875 -197.99578125 478.546875 -198.67578125 478.546875 C-198.94390625 479.145 -199.21203125 479.743125 -199.48828125 480.359375 C-200.68740901 482.56829456 -201.8925857 483.80263275 -203.67578125 485.546875 C-204.6637327 486.66416829 -205.64205474 487.79001307 -206.61328125 488.921875 C-209.8579278 492.65356151 -213.18986275 496.29539853 -216.55078125 499.921875 C-220.87582361 504.5889317 -225.15843162 509.28968685 -229.40625 514.02734375 C-232.39934442 517.3501422 -235.41853987 520.64866732 -238.44726562 523.93896484 C-240.80339848 526.49908834 -243.14808008 529.06780607 -245.46875 531.66015625 C-265.57932459 554.04846739 -265.57932459 554.04846739 -280.67578125 555.546875 C-283.7387866 555.70665916 -286.79640573 555.77070765 -289.86328125 555.796875 C-290.62358643 555.8062207 -291.3838916 555.81556641 -292.16723633 555.82519531 C-301.03258894 555.77492835 -310.40298482 553.19438415 -317.23828125 547.359375 C-318.44484375 545.9671875 -318.44484375 545.9671875 -319.67578125 544.546875 C-320.61744141 543.62455078 -320.61744141 543.62455078 -321.578125 542.68359375 C-327.43989145 536.71266964 -330.20088396 530.48141697 -332.67578125 522.546875 C-332.876875 521.92425781 -333.07796875 521.30164063 -333.28515625 520.66015625 C-335.72394726 507.46629687 -333.32186609 494.81401926 -326.11889648 483.57006836 C-323.75082505 480.25012115 -320.97186244 477.44237933 -318.05078125 474.609375 C-317.44121582 474.00963867 -316.83165039 473.40990234 -316.20361328 472.79199219 C-303.17517015 460.12724418 -303.17517015 460.12724418 -297.49609375 457.5625 C-295.1602863 456.25925979 -294.79656514 454.93247926 -293.67578125 452.546875 C-291.984375 450.9140625 -291.984375 450.9140625 -290.11328125 449.421875 C-287.46552459 447.33783866 -287.46552459 447.33783866 -285.67578125 444.546875 C-284.98742187 444.15757812 -284.2990625 443.76828125 -283.58984375 443.3671875 C-279.58923066 440.86814501 -276.43383519 437.68924151 -273.05078125 434.421875 C-267.69170623 429.3155063 -262.25425369 424.47305667 -256.4609375 419.859375 C-251.75303572 415.9504299 -247.34184622 411.72264662 -242.87890625 407.5390625 C-239.22346639 404.11340519 -235.47641208 400.81024388 -231.67578125 397.546875 C-223.43274185 390.45619687 -215.26053353 383.31671652 -207.28125 375.9296875 C-205.0554837 373.89412911 -202.79760839 371.92364769 -200.48828125 369.984375 C-197.67155682 367.85760532 -197.67155682 367.85760532 -196.67578125 365.546875 C-195.95648438 365.12664062 -195.2371875 364.70640625 -194.49609375 364.2734375 C-191.11699853 362.20479472 -188.39733572 359.64515012 -185.55078125 356.921875 C-181.57650878 353.18105316 -177.57357755 349.57476068 -173.30078125 346.171875 C-168.02738704 341.94393504 -163.15213109 337.36383808 -158.24731445 332.72167969 C-153.64256022 328.38682063 -148.91072909 324.33452967 -143.9453125 320.4140625 C-141.6151761 318.57706496 -141.6151761 318.57706496 -139.5625 316.3046875 C-137.67578125 314.546875 -137.67578125 314.546875 -134.67578125 314.546875 C-134.40765625 313.9075 -134.13953125 313.268125 -133.86328125 312.609375 C-132.67578125 310.546875 -132.67578125 310.546875 -129.67578125 309.546875 C-129.00004453 308.21811539 -128.33474093 306.88403406 -127.67578125 305.546875 C-125.73046875 303.625 -125.73046875 303.625 -123.55078125 301.796875 C-122.82632813 301.18328125 -122.101875 300.5696875 -121.35546875 299.9375 C-120.80117188 299.47859375 -120.246875 299.0196875 -119.67578125 298.546875 C-120.00578125 297.66 -120.33578125 296.773125 -120.67578125 295.859375 C-122.40609096 289.70298322 -123.04795074 282.20400498 -120.77734375 276.15234375 C-119.67578125 274.234375 -119.67578125 274.234375 -117.67578125 271.546875 C-117.01578125 271.546875 -116.35578125 271.546875 -115.67578125 271.546875 C-115.51078125 270.86625 -115.34578125 270.185625 -115.17578125 269.484375 C-112.60546793 264.45084474 -108.15309157 260.98110729 -103.30078125 258.171875 C-100.67578125 257.546875 -100.67578125 257.546875 -98.46484375 257.53515625 C-92.49809072 257.41582119 -89.81701488 256.29098308 -85.55078125 251.984375 C-84.23571576 250.52597192 -82.93563899 249.05322665 -81.67578125 247.546875 C-82.7547713 244.30990485 -83.25884225 243.84363108 -85.80078125 241.796875 C-90.94043338 237.45941903 -95.60157484 232.67449799 -100.30712891 227.87792969 C-103.61683528 224.52439184 -106.93320136 221.42578261 -110.67578125 218.546875 C-112.36575448 216.90384547 -114.02794519 215.23216188 -115.67578125 213.546875 C-116.39378906 212.85078125 -117.11179687 212.1546875 -117.8515625 211.4375 C-122.01376257 207.3774816 -125.716611 203.56459847 -128.67578125 198.546875 C-129.91908203 199.03220703 -129.91908203 199.03220703 -131.1875 199.52734375 C-135.02119428 200.64782998 -138.53088462 200.89232193 -142.48828125 200.859375 C-143.19533203 200.85373535 -143.90238281 200.8480957 -144.63085938 200.84228516 C-154.32466595 200.61752059 -160.40408983 197.74880176 -167.67578125 191.546875 C-168.48144531 190.87398437 -169.28710938 190.20109375 -170.1171875 189.5078125 C-185.5605968 176.16282065 -185.5605968 176.16282065 -186.67578125 167.546875 C-187.33578125 167.546875 -187.99578125 167.546875 -188.67578125 167.546875 C-191.65004742 159.59963578 -192.04503834 151.241346 -188.98828125 143.234375 C-188.25301734 141.6548253 -187.48371823 140.09051619 -186.67578125 138.546875 C-186.34835937 137.89589844 -186.0209375 137.24492187 -185.68359375 136.57421875 C-178.88061073 124.48278542 -166.78892966 114.49930968 -157.04077148 104.78149414 C-154.97718064 102.72330343 -152.9190445 100.6597652 -150.86132812 98.59570312 C-149.52506035 97.26009566 -148.18848268 95.92479816 -146.8515625 94.58984375 C-146.24927322 93.98553024 -145.64698395 93.38121674 -145.02644348 92.7585907 C-142.09184705 89.83981937 -139.11114272 87.0307025 -135.96562195 84.33969116 C-131.6085924 80.54222186 -127.52527214 76.51641143 -123.45898438 72.41186523 C-122.29144875 71.23972977 -122.29144875 71.23972977 -121.10032654 70.04391479 C-119.42365218 68.36012989 -117.74810767 66.67521928 -116.07359314 64.98928642 C-113.41873132 62.31691624 -110.76023962 59.64820641 -108.10070801 56.98048401 C-100.54412035 49.39954368 -92.99319991 41.8129815 -85.44677734 34.22192383 C-80.81903031 29.56689309 -76.18592754 24.91722861 -71.55003357 20.27031136 C-69.79075525 18.50484507 -68.03337407 16.73748612 -66.27796936 14.96816826 C-63.82076392 12.49165396 -61.35737353 10.02144739 -58.89257812 7.55249023 C-58.17649887 6.82764938 -57.46041962 6.10280853 -56.72264099 5.35600281 C-40.08010768 -11.25465792 -18.53735671 -17.56713349 0 0 Z " fill="#FEFEFE" transform="translate(584.67578125,267.453125)"/>
</svg>
